<?xml version="1.0" encoding="UTF-8" standalone="no"?>
<!DOCTYPE svg PUBLIC "-//W3C//DTD SVG 1.1//EN" "http://www.w3.org/Graphics/SVG/1.1/DTD/svg11.dtd">
<svg width="100%" height="100%" viewBox="0 0 3666 726" version="1.1" xmlns="http://www.w3.org/2000/svg" xmlns:xlink="http://www.w3.org/1999/xlink" xml:space="preserve" xmlns:serif="http://www.serif.com/" style="fill-rule:evenodd;clip-rule:evenodd;stroke-linejoin:round;stroke-miterlimit:2;">
    <g transform="matrix(1,0,0,1,0.00355208,-77.26)">
        <g transform="matrix(1,0,0,1,-1778.29,-10157.9)">
            <g transform="matrix(0.735083,0,0,1.09809,-128.729,-86.2244)">
                <rect x="2779.5" y="9521" width="4801.5" height="418" style="fill:white;"/>
            </g>
        </g>
        <g transform="matrix(1,0,0,1,-1778.29,-10157.9)">
            <g transform="matrix(1,0,0,1,31.648,5937.76)">
                <g transform="matrix(1,0,0,1,185.359,-4164.1)">
                    <g transform="matrix(600,0,0,600,2158,8991.27)">
                        <path d="M0.89,0.222L0,0.222L0,0.111L0.781,0.111L0.781,-0L0,-0L0,-0.557L0.89,-0.557L0.89,0.222ZM0.781,-0.111L0.781,-0.444L0.111,-0.444L0.111,-0.111L0.781,-0.111Z" style="fill:rgb(17,56,72);fill-rule:nonzero;"/>
                    </g>
                    <g transform="matrix(600,0,0,600,2758.6,8991.27)">
                        <path d="M0.89,-0.444L0.111,-0.444L0.111,-0L0,-0L0,-0.557L0.89,-0.557L0.89,-0.444Z" style="fill:rgb(17,56,72);fill-rule:nonzero;"/>
                    </g>
                    <g transform="matrix(600,0,0,600,3359.2,8991.27)">
                        <path d="M0.89,-0L0,-0L0,-0.557L0.89,-0.557L0.89,-0ZM0.778,-0.111L0.778,-0.444L0.111,-0.444L0.111,-0.111L0.778,-0.111Z" style="fill:rgb(17,56,72);fill-rule:nonzero;"/>
                    </g>
                    <g transform="matrix(600,0,0,600,3959.8,8991.27)">
                        <path d="M0.779,-0L0.444,-0L0.444,-0.222L0.111,-0.222L0.111,-0L0,-0L0,-0.779L0.111,-0.779L0.111,-0.333L0.444,-0.333L0.444,-0.557L0.779,-0.557L0.779,-0.444L0.557,-0.444L0.557,-0.111L0.779,-0.111L0.779,-0Z" style="fill:rgb(17,56,72);fill-rule:nonzero;"/>
                    </g>
                    <g transform="matrix(600,0,0,600,4493.74,8991.27)">
                        <rect x="0" y="-0.557" width="0.111" height="0.557" style="fill:rgb(17,56,72);"/>
                    </g>
                    <g transform="matrix(600,0,0,600,4627.07,8991.27)">
                        <path d="M0.895,-0L0,-0L0,-0.779L0.116,-0.779L0.116,-0.556L0.895,-0.557L0.895,-0.444L0.116,-0.444L0.116,-0.111L0.895,-0.111L0.895,-0Z" style="fill:rgb(17,56,72);fill-rule:nonzero;"/>
                    </g>
                    <path d="M2095.5,8594.83L2095.5,9187.1L2754.43,9187.1L2754.43,8594.83L2095.5,8594.83ZM2691.93,9124.6L2158,9124.6L2158,9057.93L2626.47,9057.93L2626.47,8991.27L2158,8991.27L2158,8657.33L2691.93,8657.33L2691.93,9124.6ZM2626.47,8924.6L2626.47,8724.6L2224.67,8724.6L2224.67,8924.6L2626.47,8924.6ZM2563.97,8862.1L2287.17,8862.1L2287.17,8787.1L2563.97,8787.1L2563.97,8862.1Z" style="fill:white;"/>
                    <path d="M2887.77,8787.1L3355.03,8787.1L3355.03,8594.83L2696.1,8594.83L2696.1,9053.77L2887.77,9053.77L2887.77,8787.1ZM3292.53,8724.6L2825.27,8724.6L2825.27,8991.27L2758.6,8991.27L2758.6,8657.33L3292.53,8657.33L3292.53,8724.6Z" style="fill:white;"/>
                    <path d="M3296.7,9053.77L3955.64,9053.77L3955.64,8594.83L3296.7,8594.83L3296.7,9053.77ZM3893.14,8991.27L3359.2,8991.27L3359.2,8657.33L3893.14,8657.33L3893.14,8991.27ZM3825.87,8924.6L3825.87,8724.6L3425.87,8724.6L3425.87,8924.6L3825.87,8924.6ZM3763.37,8862.1L3488.37,8862.1L3488.37,8787.1L3763.37,8787.1L3763.37,8862.1Z" style="fill:white;"/>
                    <path d="M4163.97,9053.77L4489.57,9053.77L4489.57,8862.1L4356.24,8862.1L4356.24,8787.1L4489.57,8787.1L4489.57,8594.83L4163.97,8594.83L4163.97,8728.77L4088.97,8728.77L4088.97,8461.5L3897.3,8461.5L3897.3,9053.77L4088.97,9053.77L4088.97,8920.43L4163.97,8920.43L4163.97,9053.77ZM4427.07,8991.27L4226.47,8991.27L4226.47,8857.93L4026.47,8857.93L4026.47,8991.27L3959.8,8991.27L3959.8,8524L4026.47,8524L4026.47,8791.27L4226.47,8791.27L4226.47,8657.33L4427.07,8657.33L4427.07,8724.6L4293.74,8724.6L4293.74,8924.6L4427.07,8924.6L4427.07,8991.27Z" style="fill:white;"/>
                    <path d="M4431.24,9053.77L4622.9,9053.77L4622.9,8594.83L4431.24,8594.83L4431.24,9053.77ZM4560.4,8991.27L4493.74,8991.27L4493.74,8657.33L4560.4,8657.33L4560.4,8991.27Z" style="fill:white;"/>
                    <path d="M4564.57,9053.77L5226.51,9053.77L5226.51,8862.1L4759.24,8862.1L4759.24,8787.1L5226.51,8787.1L5226.51,8594.75L4759.24,8595.35L4759.24,8461.5L4564.57,8461.5L4564.57,9053.77ZM5164.01,8991.27L4627.07,8991.27L4627.07,8524L4696.74,8524L4696.74,8657.93L5164.01,8657.33L5164.01,8724.6L4696.74,8724.6L4696.74,8924.6L5164.01,8924.6L5164.01,8991.27Z" style="fill:white;"/>
                </g>
                <g transform="matrix(13.9272,0,0,0.949579,-7190.19,3786.79)">
                    <rect x="656" y="744" width="24" height="352" style="fill:rgb(239,92,161);"/>
                    <path d="M684.488,1161.82L684.488,678.181L651.512,678.181L651.512,1161.82L684.488,1161.82ZM680,744L656,744L656,1096L680,1096L680,744Z" style="fill:white;"/>
                </g>
                <g transform="matrix(13.9272,0,0,0.949579,-7190.19,3786.79)">
                    <rect x="656" y="744" width="24" height="352" style="fill:rgb(239,92,161);"/>
                    <path d="M684.488,1161.82L684.488,678.181L651.512,678.181L651.512,1161.82L684.488,1161.82ZM680,744L656,744L656,1096L680,1096L680,744Z" style="fill:white;"/>
                </g>
            </g>
        </g>
        <g transform="matrix(1,0,0,1,-1778.29,-10157.9)">
            <g transform="matrix(1,0,0,1,1.648,5907.76)">
                <g>
                    <g transform="matrix(2.17933,0,0,2.17933,1783.56,4400.76)">
                        <path d="M198.89,109.523C198.89,113.669 198.137,117.634 196.76,121.29C192.046,133.777 180.069,142.647 166.033,142.647C151.669,142.647 139.463,133.355 134.994,120.407C108.458,122.33 93.284,110.372 86.975,87.58C71.037,83.21 59.322,68.518 59.322,51.064C59.322,39.775 64.225,29.639 72.001,22.709C78.618,16.803 87.321,13.221 96.854,13.221C107.776,13.221 117.611,17.922 124.461,25.438C129.069,22.4 134.575,20.639 140.489,20.639C144.616,20.639 148.55,21.5 152.115,23.052C162.429,27.541 169.682,37.823 169.843,49.832C169.849,49.973 169.849,50.108 169.849,50.249L169.843,50.749L169.843,50.755C171.343,50.423 172.899,50.249 174.501,50.249C181.653,50.249 188.007,53.702 192.011,59.046L192.018,59.046C194.795,62.753 196.441,67.37 196.441,72.376C196.451,77.568 194.637,82.596 191.32,86.568C191.071,86.874 190.812,87.172 190.544,87.462C195.738,93.317 198.89,101.051 198.89,109.523" style="fill:white;fill-rule:nonzero;stroke:white;stroke-width:28.68px;"/>
                        <path d="M140.126,48.388C134.182,54.902 130.551,63.597 130.551,73.148C130.551,93.346 146.791,109.721 166.824,109.721C169.409,109.723 171.986,109.447 174.513,108.898M95.269,36.582C96.177,49.792 107.092,60.224 120.423,60.224M160.522,55.318C163.218,53.059 166.416,51.493 169.843,50.752M124.462,25.434C120.239,28.206 116.769,32.049 114.432,36.582" style="fill:none;fill-rule:nonzero;stroke:white;stroke-width:28.68px;stroke-linecap:round;stroke-miterlimit:10;"/>
                        <path d="M198.89,109.517C198.89,127.814 184.18,142.642 166.033,142.642C151.669,142.642 139.463,133.35 134.994,120.401C108.458,122.325 93.284,110.367 86.975,87.575C71.037,83.205 59.322,68.513 59.322,51.058C59.322,30.157 76.124,13.215 96.854,13.215C107.776,13.215 117.611,17.917 124.461,25.432C129.069,22.394 134.575,20.634 140.489,20.634C156.705,20.634 169.849,33.892 169.849,50.243L169.843,50.744L169.843,50.749C171.343,50.417 172.899,50.243 174.501,50.243C186.617,50.243 196.441,60.148 196.441,72.371C196.441,78.204 194.204,83.503 190.544,87.457C195.738,93.312 198.89,101.046 198.89,109.518L198.89,109.517Z" style="fill:none;fill-rule:nonzero;stroke:white;stroke-width:28.68px;stroke-miterlimit:10;"/>
                        <path d="M190.546,87.457C190.546,87.457 187.999,84.792 184.515,82.018M92.571,147.53C91.133,144.501 90.213,141.249 89.85,137.911" style="fill:none;fill-rule:nonzero;stroke:white;stroke-width:28.68px;stroke-linecap:round;stroke-miterlimit:10;"/>
                        <path d="M156.992,124.493C158.153,127.742 158.746,131.17 158.743,134.623C158.743,152.387 143.28,166.78 124.201,166.78C110.054,166.78 97.898,158.866 92.565,147.532C88.17,150.542 82.898,152.297 77.236,152.297C64.54,152.297 53.828,143.488 50.47,131.44C48.073,132.042 45.611,132.347 43.14,132.345C26.555,132.345 13.105,118.789 13.105,102.061C13.105,89.214 21.044,78.235 32.245,73.841C31.805,72.002 31.57,70.096 31.57,68.138C31.57,52.968 45.55,40.672 62.799,40.672C72.701,40.672 81.536,44.732 87.254,51.055C91.84,48.574 97.129,47.152 102.763,47.152C120.24,47.152 134.409,60.815 134.409,77.666C134.411,78.064 134.402,78.461 134.381,78.858C148.802,81.524 159.763,94.878 159.763,110.954C159.763,115.785 158.776,120.37 156.992,124.492" style="fill:white;fill-rule:nonzero;stroke:white;stroke-width:28.68px;"/>
                        <path d="M145.791,109.524C150.939,113.359 154.878,118.546 156.998,124.497M50.477,131.443C49.763,128.89 49.383,126.195 49.383,123.405C49.383,112.02 55.737,102.172 64.964,97.464M40.073,71.944C37.34,72.225 34.718,72.872 32.252,73.845M87.267,51.064L87.261,51.059M87.261,51.059C83.34,53.196 79.937,56.11 77.276,59.587" style="fill:none;fill-rule:nonzero;stroke:white;stroke-width:28.68px;stroke-linecap:round;stroke-miterlimit:10;"/>
                        <path d="M157.008,124.495C158.169,127.744 158.761,131.172 158.759,134.625C158.759,152.389 143.295,166.782 124.216,166.782C110.07,166.782 97.914,158.868 92.581,147.534C88.186,150.544 82.913,152.298 77.251,152.298C64.555,152.298 53.844,143.49 50.486,131.442C48.089,132.044 45.627,132.349 43.156,132.347C26.571,132.347 13.121,118.791 13.121,102.063C13.121,89.216 21.059,78.236 32.261,73.843C31.82,72.004 31.586,70.097 31.586,68.14C31.586,52.97 45.566,40.674 62.814,40.674C72.716,40.674 81.552,44.734 87.27,51.057C91.856,48.576 97.144,47.154 102.779,47.154C120.256,47.154 134.425,60.817 134.425,77.668C134.427,78.066 134.417,78.463 134.397,78.86C148.818,81.526 159.779,94.88 159.779,110.956C159.779,115.787 158.792,120.372 157.007,124.494L157.008,124.495Z" style="fill:none;fill-rule:nonzero;stroke:white;stroke-width:28.68px;stroke-miterlimit:10;"/>
                        <path d="M107.388,87.926C112.944,82.032 120.615,78.381 129.082,78.381C130.89,78.381 132.659,78.544 134.382,78.864M132.395,117.179C128.018,122.698 121.283,126.234 113.729,126.234C100.536,126.234 89.842,115.45 89.842,102.149C89.833,96.594 91.737,91.209 95.227,86.913" style="fill:none;fill-rule:nonzero;stroke:white;stroke-width:28.68px;stroke-linecap:round;stroke-miterlimit:10;"/>
                        <path d="M124.299,138.158C124.299,133.428 123.116,128.979 121.029,125.092M74.377,122.775C78.315,116.891 84.446,112.633 91.592,111.188M31.791,102.086C34.817,100.878 38.042,100.257 41.297,100.258C46.515,100.251 51.612,101.848 55.907,104.838M80.901,79.919C79.276,80.402 77.556,80.66 75.775,80.66C71.049,80.667 66.508,78.806 63.126,75.479M159.298,78.745C161.799,76.864 164.836,75.85 167.956,75.854C168.823,75.854 169.688,75.931 170.541,76.086" style="fill:none;fill-rule:nonzero;stroke:white;stroke-width:28.68px;stroke-linecap:round;stroke-miterlimit:10;"/>
                        <path d="M193.124,87.474C196.538,83.203 198.401,77.907 198.401,72.377C198.401,59.09 187.682,48.28 174.508,48.28C173.587,48.28 172.668,48.334 171.757,48.44C170.825,31.866 157.159,18.671 140.495,18.671C134.939,18.671 129.541,20.138 124.786,22.927C117.377,15.461 107.334,11.263 96.86,11.252C79.304,11.252 64.394,22.868 59.276,38.875C42.636,40.445 29.628,52.97 29.628,68.141C29.628,69.651 29.759,71.164 30.017,72.655C18.509,77.856 11.164,89.224 11.164,102.064C11.164,119.848 25.514,134.317 43.151,134.317C45.165,134.317 47.175,134.128 49.154,133.751C53.341,145.92 64.643,154.268 77.247,154.268C82.361,154.272 87.386,152.916 91.815,150.338C98.05,161.593 110.524,168.752 124.212,168.752C140.877,168.752 154.959,158.248 159.31,143.952C161.498,144.386 163.749,144.616 166.039,144.616C185.233,144.616 200.849,128.872 200.849,109.523C200.849,101.462 198.118,93.698 193.124,87.474Z" style="fill:none;fill-rule:nonzero;stroke:white;stroke-width:28.68px;stroke-miterlimit:10;"/>
                    </g>
                    <g transform="matrix(2.17933,0,0,2.17933,1783.56,4400.76)">
                        <path d="M198.89,109.523C198.89,113.669 198.137,117.634 196.76,121.29C192.046,133.777 180.069,142.647 166.033,142.647C151.669,142.647 139.463,133.355 134.994,120.407C108.458,122.33 93.284,110.372 86.975,87.58C71.037,83.21 59.322,68.518 59.322,51.064C59.322,39.775 64.225,29.639 72.001,22.709C78.618,16.803 87.321,13.221 96.854,13.221C107.776,13.221 117.611,17.922 124.461,25.438C129.069,22.4 134.575,20.639 140.489,20.639C144.616,20.639 148.55,21.5 152.115,23.052C162.429,27.541 169.682,37.823 169.843,49.832C169.849,49.973 169.849,50.108 169.849,50.249L169.843,50.749L169.843,50.755C171.343,50.423 172.899,50.249 174.501,50.249C181.653,50.249 188.007,53.702 192.011,59.046L192.018,59.046C194.795,62.753 196.441,67.37 196.441,72.376C196.451,77.568 194.637,82.596 191.32,86.568C191.071,86.874 190.812,87.172 190.544,87.462C195.738,93.317 198.89,101.051 198.89,109.523" style="fill:white;fill-rule:nonzero;stroke:rgb(17,56,72);stroke-width:0.46px;"/>
                        <path d="M140.126,48.388C134.182,54.902 130.551,63.597 130.551,73.148C130.551,93.346 146.791,109.721 166.824,109.721C169.409,109.723 171.986,109.447 174.513,108.898M95.269,36.582C96.177,49.792 107.092,60.224 120.423,60.224M160.522,55.318C163.218,53.059 166.416,51.493 169.843,50.752M124.462,25.434C120.239,28.206 116.769,32.049 114.432,36.582" style="fill:none;fill-rule:nonzero;stroke:rgb(17,56,72);stroke-width:4.48px;stroke-linecap:round;stroke-miterlimit:10;"/>
                        <path d="M198.89,109.517C198.89,127.814 184.18,142.642 166.033,142.642C151.669,142.642 139.463,133.35 134.994,120.401C108.458,122.325 93.284,110.367 86.975,87.575C71.037,83.205 59.322,68.513 59.322,51.058C59.322,30.157 76.124,13.215 96.854,13.215C107.776,13.215 117.611,17.917 124.461,25.432C129.069,22.394 134.575,20.634 140.489,20.634C156.705,20.634 169.849,33.892 169.849,50.243L169.843,50.744L169.843,50.749C171.343,50.417 172.899,50.243 174.501,50.243C186.617,50.243 196.441,60.148 196.441,72.371C196.441,78.204 194.204,83.503 190.544,87.457C195.738,93.312 198.89,101.046 198.89,109.518L198.89,109.517Z" style="fill:none;fill-rule:nonzero;stroke:rgb(17,56,72);stroke-width:3.92px;stroke-miterlimit:10;"/>
                        <path d="M190.546,87.457C190.546,87.457 187.999,84.792 184.515,82.018M92.571,147.53C91.133,144.501 90.213,141.249 89.85,137.911" style="fill:none;fill-rule:nonzero;stroke:rgb(17,56,72);stroke-width:4.48px;stroke-linecap:round;stroke-miterlimit:10;"/>
                        <path d="M156.992,124.493C158.153,127.742 158.746,131.17 158.743,134.623C158.743,152.387 143.28,166.78 124.201,166.78C110.054,166.78 97.898,158.866 92.565,147.532C88.17,150.542 82.898,152.297 77.236,152.297C64.54,152.297 53.828,143.488 50.47,131.44C48.073,132.042 45.611,132.347 43.14,132.345C26.555,132.345 13.105,118.789 13.105,102.061C13.105,89.214 21.044,78.235 32.245,73.841C31.805,72.002 31.57,70.096 31.57,68.138C31.57,52.968 45.55,40.672 62.799,40.672C72.701,40.672 81.536,44.732 87.254,51.055C91.84,48.574 97.129,47.152 102.763,47.152C120.24,47.152 134.409,60.815 134.409,77.666C134.411,78.064 134.402,78.461 134.381,78.858C148.802,81.524 159.763,94.878 159.763,110.954C159.763,115.785 158.776,120.37 156.992,124.492" style="fill:white;fill-rule:nonzero;stroke:rgb(17,56,72);stroke-width:0.46px;"/>
                        <path d="M145.791,109.524C150.939,113.359 154.878,118.546 156.998,124.497M50.477,131.443C49.763,128.89 49.383,126.195 49.383,123.405C49.383,112.02 55.737,102.172 64.964,97.464M40.073,71.944C37.34,72.225 34.718,72.872 32.252,73.845M87.267,51.064L87.261,51.059M87.261,51.059C83.34,53.196 79.937,56.11 77.276,59.587" style="fill:none;fill-rule:nonzero;stroke:rgb(17,56,72);stroke-width:4.48px;stroke-linecap:round;stroke-miterlimit:10;"/>
                        <path d="M157.008,124.495C158.169,127.744 158.761,131.172 158.759,134.625C158.759,152.389 143.295,166.782 124.216,166.782C110.07,166.782 97.914,158.868 92.581,147.534C88.186,150.544 82.913,152.298 77.251,152.298C64.555,152.298 53.844,143.49 50.486,131.442C48.089,132.044 45.627,132.349 43.156,132.347C26.571,132.347 13.121,118.791 13.121,102.063C13.121,89.216 21.059,78.236 32.261,73.843C31.82,72.004 31.586,70.097 31.586,68.14C31.586,52.97 45.566,40.674 62.814,40.674C72.716,40.674 81.552,44.734 87.27,51.057C91.856,48.576 97.144,47.154 102.779,47.154C120.256,47.154 134.425,60.817 134.425,77.668C134.427,78.066 134.417,78.463 134.397,78.86C148.818,81.526 159.779,94.88 159.779,110.956C159.779,115.787 158.792,120.372 157.007,124.494L157.008,124.495Z" style="fill:none;fill-rule:nonzero;stroke:rgb(17,56,72);stroke-width:3.92px;stroke-miterlimit:10;"/>
                        <path d="M107.388,87.926C112.944,82.032 120.615,78.381 129.082,78.381C130.89,78.381 132.659,78.544 134.382,78.864M132.395,117.179C128.018,122.698 121.283,126.234 113.729,126.234C100.536,126.234 89.842,115.45 89.842,102.149C89.833,96.594 91.737,91.209 95.227,86.913" style="fill:none;fill-rule:nonzero;stroke:rgb(17,56,72);stroke-width:4.48px;stroke-linecap:round;stroke-miterlimit:10;"/>
                        <path d="M124.299,138.158C124.299,133.428 123.116,128.979 121.029,125.092M74.377,122.775C78.315,116.891 84.446,112.633 91.592,111.188M31.791,102.086C34.817,100.878 38.042,100.257 41.297,100.258C46.515,100.251 51.612,101.848 55.907,104.838M80.901,79.919C79.276,80.402 77.556,80.66 75.775,80.66C71.049,80.667 66.508,78.806 63.126,75.479M159.298,78.745C161.799,76.864 164.836,75.85 167.956,75.854C168.823,75.854 169.688,75.931 170.541,76.086" style="fill:none;fill-rule:nonzero;stroke:rgb(17,56,72);stroke-width:4.48px;stroke-linecap:round;stroke-miterlimit:10;"/>
                        <path d="M193.124,87.474C196.538,83.203 198.401,77.907 198.401,72.377C198.401,59.09 187.682,48.28 174.508,48.28C173.587,48.28 172.668,48.334 171.757,48.44C170.825,31.866 157.159,18.671 140.495,18.671C134.939,18.671 129.541,20.138 124.786,22.927C117.377,15.461 107.334,11.263 96.86,11.252C79.304,11.252 64.394,22.868 59.276,38.875C42.636,40.445 29.628,52.97 29.628,68.141C29.628,69.651 29.759,71.164 30.017,72.655C18.509,77.856 11.164,89.224 11.164,102.064C11.164,119.848 25.514,134.317 43.151,134.317C45.165,134.317 47.175,134.128 49.154,133.751C53.341,145.92 64.643,154.268 77.247,154.268C82.361,154.272 87.386,152.916 91.815,150.338C98.05,161.593 110.524,168.752 124.212,168.752C140.877,168.752 154.959,158.248 159.31,143.952C161.498,144.386 163.749,144.616 166.039,144.616C185.233,144.616 200.849,128.872 200.849,109.523C200.849,101.462 198.118,93.698 193.124,87.474Z" style="fill:none;fill-rule:nonzero;stroke:rgb(17,56,72);stroke-width:7.84px;stroke-miterlimit:10;"/>
                    </g>
                </g>
            </g>
        </g>
    </g>
</svg>
